<svg width="99" height="86" viewBox="0 0 99 86" fill="none" xmlns="http://www.w3.org/2000/svg">
<g clip-path="url(#clip0_2_532)">
<path d="M72.93 20.47H78.82C81.3504 20.4726 83.777 21.4762 85.57 23.2617C87.363 25.0472 88.3768 27.4696 88.39 30V38H17.5V30C17.5026 27.4627 18.5118 25.0301 20.3059 23.2359C22.1001 21.4418 24.5327 20.4326 27.07 20.43H72.93V20.47Z" fill="#F4C80F"/>
<path d="M53 51.94C53 51.94 46.68 45.94 42.3 51.46C37.92 56.98 45.1 66 46.91 67.68C48.72 69.36 52.62 72.86 53.68 72.86C54.74 72.86 65.39 64.28 65 56.32C64.61 48.36 57.83 46.55 53 51.94Z" fill="#F4C80F"/>
<path d="M40.88 63.77C46.75 69.36 48.2 69.36 48.68 69.36C50.54 69.36 55.03 64.64 55.07 64.59C57.58 61.94 61.75 56.67 61.45 51.24C61.21 46.98 59.25 43.8 56.2 42.74C53.49 41.74 50.47 42.61 47.91 44.92C46.0241 43.4249 43.6867 42.6141 41.28 42.62C40.263 42.7012 39.276 43.0037 38.3881 43.5063C37.5002 44.009 36.733 44.6997 36.14 45.53C31.06 52 38.71 61.71 40.88 63.77ZM38.49 47.38C38.8325 46.8857 39.278 46.4715 39.7959 46.1659C40.3138 45.8603 40.8918 45.6707 41.49 45.61H41.79C44.37 45.6 46.92 48 47 48L48.1 49.1L49.1 47.94C51.02 45.8 53.29 44.94 55.18 45.57C57.07 46.2 58.26 48.36 58.43 51.4C58.78 57.73 50.78 64.99 48.59 66.26C46.5802 64.8913 44.7081 63.3307 43 61.6C41.61 60.28 34.89 52.04 38.54 47.38" fill="#546E4D"/>
<path d="M73.82 14H68.94V9.27C68.9374 8.40355 68.592 7.57335 67.9793 6.96067C67.3666 6.348 66.5364 6.00264 65.67 6L62.12 6C61.2536 6.00264 60.4233 6.348 59.8107 6.96067C59.198 7.57335 58.8526 8.40355 58.85 9.27V14H37V9.27C36.9975 8.41042 36.6576 7.58617 36.0536 6.97463C35.4495 6.36308 34.6295 6.0131 33.77 6H30.22C29.3623 6.01569 28.5448 6.36681 27.9429 6.97808C27.341 7.58935 27.0025 8.41212 27 9.27V14H22.07C19.1391 14.0053 16.3295 15.1705 14.2552 17.2411C12.1809 19.3116 11.0106 22.1191 11 25.05V67.93C11.0053 70.8643 12.1733 73.6769 14.2482 75.7518C16.3231 77.8267 19.1357 78.9947 22.07 79H73.82C76.7543 78.9947 79.5669 77.8267 81.6418 75.7518C83.7167 73.6769 84.8847 70.8643 84.89 67.93V25.05C84.8794 22.1191 83.7091 19.3116 81.6348 17.2411C79.5605 15.1705 76.7509 14.0053 73.82 14ZM61.82 9.3C61.8152 9.25944 61.8196 9.21832 61.833 9.17972C61.8464 9.14113 61.8683 9.10607 61.8972 9.07719C61.9261 9.04831 61.9611 9.02636 61.9997 9.01299C62.0383 8.99962 62.0794 8.99518 62.12 9H65.67C65.7416 9 65.8103 9.02845 65.8609 9.07908C65.9116 9.12972 65.94 9.19839 65.94 9.27V21.68C65.94 21.7516 65.9116 21.8203 65.8609 21.8709C65.8103 21.9216 65.7416 21.95 65.67 21.95H62.12C62.0484 21.95 61.9797 21.9216 61.9291 21.8709C61.8784 21.8203 61.85 21.7516 61.85 21.68L61.82 9.3ZM30 9.27C29.9989 9.20627 30.0204 9.1442 30.0606 9.09479C30.1009 9.04537 30.1574 9.01179 30.22 9H33.77C33.8416 9 33.9103 9.02845 33.9609 9.07908C34.0116 9.12972 34.04 9.19839 34.04 9.27V21.68C34.04 21.7516 34.0116 21.8203 33.9609 21.8709C33.9103 21.9216 33.8416 21.95 33.77 21.95H30.22C30.1484 21.95 30.0797 21.9216 30.0291 21.8709C29.9784 21.8203 29.95 21.7516 29.95 21.68L30 9.27ZM81.89 67.93C81.8874 70.0695 81.0363 72.1206 79.5234 73.6334C78.0106 75.1463 75.9595 75.9974 73.82 76H22.07C19.9305 75.9974 17.8794 75.1463 16.3666 73.6334C14.8537 72.1206 14.0026 70.0695 14 67.93V34.7H81.89V67.93ZM81.89 31.7H14V25.05C14.0079 22.914 14.8613 20.868 16.3736 19.3595C17.8859 17.851 19.934 17.0026 22.07 17H27V21.71C26.9972 22.5713 27.3334 23.3992 27.9359 24.0148C28.5383 24.6304 29.3588 24.9842 30.22 25H33.77C34.6382 24.9868 35.4657 24.63 36.0712 24.0076C36.6767 23.3853 37.0107 22.5482 37 21.68V17H58.85V21.71C58.8487 22.1407 58.9322 22.5675 59.0958 22.966C59.2595 23.3644 59.5 23.7267 59.8036 24.0322C60.1073 24.3377 60.4681 24.5805 60.8656 24.7465C61.263 24.9125 61.6893 24.9987 62.12 25H65.67C66.5364 24.9974 67.3666 24.652 67.9793 24.0393C68.592 23.4267 68.9374 22.5964 68.94 21.73V17H73.82C75.9612 17.0027 78.0138 17.8551 79.527 19.3701C81.0401 20.8851 81.89 22.9388 81.89 25.08V31.7Z" fill="#546E4D"/>
</g>
<defs>
<clipPath id="clip0_2_532">
<rect width="77.39" height="73" fill="white" transform="translate(11 6)"/>
</clipPath>
</defs>
</svg>
