<svg width="99" height="86" viewBox="0 0 99 86" fill="none" xmlns="http://www.w3.org/2000/svg">
<g clip-path="url(#clip0_2_522)">
<path d="M36.4049 85.68C36.4049 85.68 47.7949 83.53 51.5249 79.68C55.2549 75.83 57.2049 77.68 61.0549 79.47C64.9049 81.26 70.7449 86.89 78.3249 84.82C85.9049 82.75 85.7449 75.13 77.8849 63.82C70.0249 52.51 64.1749 47 54.6449 47.16C54.6449 47.16 41.3049 47.44 32.1849 66.7C23.0649 85.96 36.4049 85.7 36.4049 85.7" fill="#F6C63B"/>
<path d="M26.7848 39.69C26.2862 36.0072 24.6823 32.5622 22.1848 29.81C16.6948 23.56 8.52482 21.73 3.96482 25.74C-0.595176 29.75 0.134824 38.09 5.62482 44.34C8.0301 47.1746 11.2376 49.2142 14.8248 50.19C15.8065 50.4326 16.8136 50.5568 17.8248 50.56C20.0201 50.5992 22.154 49.8346 23.8248 48.41C26.1148 46.41 27.1548 43.3 26.7648 39.69H26.7848ZM15.5348 47.27C12.5424 46.4486 9.87076 44.7361 7.87482 42.36C3.48482 37.35 2.61482 30.91 5.96482 28C7.11081 27.0394 8.57017 26.5339 10.0648 26.58C13.2348 26.58 17.0648 28.45 19.9548 31.8C22.0359 34.0824 23.378 36.9409 23.8048 40C24.0848 42.62 23.4048 44.8 21.8648 46.14C20.3248 47.48 18.0848 47.88 15.5348 47.26" fill="#546E4D"/>
<path d="M36.9648 35.4H37.1748C44.3048 35.24 49.9348 27.18 49.7248 17.4C49.7196 13.0291 48.376 8.76457 45.8748 5.18C43.3548 1.77 40.0248 0 36.4448 0C29.3148 0.15 23.6848 8.22 23.8948 18C23.913 22.3828 25.2665 26.656 27.7748 30.25C30.2548 33.59 33.5148 35.43 36.9948 35.43L36.9648 35.4ZM36.5148 3C39.0848 3 41.5148 4.35 43.5148 7C45.6576 10.094 46.8085 13.7665 46.8148 17.53C46.9848 25.63 42.6649 32.32 37.1848 32.44C34.6448 32.53 32.1848 31.08 30.2448 28.44C28.0925 25.3545 26.9405 21.682 26.9448 17.92C26.7148 9.81 31.0348 3.12 36.5148 3Z" fill="#546E4D"/>
<path d="M63.4949 38.13C64.1874 38.2855 64.8952 38.3626 65.6049 38.36C71.8949 38.36 78.0749 32.27 80.0149 23.71C81.0543 19.4563 80.7682 14.9865 79.1949 10.9C77.5749 6.99999 74.7749 4.37999 71.3049 3.59999C67.8349 2.81999 64.1849 3.93999 61.0349 6.78999C57.8572 9.80341 55.6735 13.7138 54.7749 18C52.6249 27.52 56.5349 36.54 63.4949 38.12V38.13ZM57.7049 18.67C58.4556 14.9769 60.3191 11.6023 63.0449 8.99999C64.6793 7.38338 66.8581 6.43484 69.1549 6.33999C69.656 6.33826 70.1557 6.39192 70.6449 6.49999C73.1349 7.05999 75.1849 9.02999 76.4249 12.02C77.7629 15.5333 77.9932 19.3719 77.0849 23.02C75.3049 31 69.4949 36.41 64.1549 35.2C58.8149 33.99 55.9649 26.57 57.7049 18.67Z" fill="#546E4D"/>
<path d="M95.9049 33.25C93.9049 30.96 90.7948 29.92 87.1848 30.31C83.5033 30.8128 80.0595 32.4162 77.3048 34.91C71.0548 40.4 69.2348 48.57 73.2348 53.14C74.1589 54.1343 75.287 54.9172 76.5418 55.435C77.7966 55.9528 79.1485 56.1933 80.5048 56.14C84.7164 55.9874 88.7347 54.3347 91.8349 51.48C98.0849 46 99.9648 37.81 95.9049 33.25ZM89.9049 49.25C84.9049 53.64 78.4548 54.51 75.5348 51.19C72.6148 47.87 74.3148 41.59 79.3248 37.19C81.6137 35.0957 84.4828 33.7431 87.5548 33.31C87.9303 33.2708 88.3074 33.2508 88.6848 33.25C89.6132 33.2034 90.5406 33.358 91.4036 33.7032C92.2666 34.0484 93.0448 34.576 93.6848 35.25C96.5948 38.57 94.8948 44.84 89.8948 49.25" fill="#546E4D"/>
<path d="M48.7349 39.78C48.1549 39.78 34.3649 40.31 24.9449 60.18C21.2749 67.93 20.6349 73.75 23.0449 77.47C25.4549 81.19 29.8949 81.3 30.4949 81.3H30.5549H30.8049C31.2849 81.21 42.7149 79.01 46.7249 74.82C49.1949 72.24 50.1749 72.74 53.0649 74.21L54.5349 74.94C55.4777 75.4177 56.3925 75.9485 57.2749 76.53C61.1049 78.9 66.3349 82.16 72.8449 80.38C76.7849 79.28 78.3649 77 78.9649 75.2C80.5249 70.9 78.5849 64.8 73.1949 57.08C65.1949 45.69 58.9649 39.53 48.6949 39.78H48.7349ZM76.1449 74.18C75.5649 75.78 74.2149 76.86 72.0149 77.45C66.7649 78.89 62.3649 76.15 58.8249 73.95C57.8577 73.3123 56.8562 72.7281 55.8249 72.2L54.4349 71.5C51.4349 69.98 48.5849 68.5 44.5749 72.72C41.8349 75.57 33.5749 77.72 30.4049 78.29C29.4622 78.2746 28.5356 78.043 27.6964 77.6131C26.8573 77.1831 26.1281 76.5662 25.5649 75.81C23.7949 73.06 24.5649 68.1 27.6749 61.46C36.2349 43.37 48.3049 42.79 48.8049 42.78H49.2649C57.9849 42.78 63.3849 48.21 70.7849 58.78C75.4449 65.46 77.3649 70.92 76.1949 74.16" fill="#546E4D"/>
</g>
<defs>
<clipPath id="clip0_2_522">
<rect width="97.07" height="85.68" fill="white" transform="translate(0.964844)"/>
</clipPath>
</defs>
</svg>
