<svg width="50" height="10" viewBox="0 0 50 10" fill="none" xmlns="http://www.w3.org/2000/svg">
<path d="M4.0035 2.83998C3.41228 2.82882 2.82772 2.96637 2.3035 3.23998C1.80297 3.48872 1.36012 3.8396 1.0035 4.26998C0.670607 4.68943 0.419576 5.16774 0.263504 5.67998C0.0953796 6.18653 0.00764937 6.71628 0.00350416 7.24998C-0.0330933 7.98245 0.21812 8.70021 0.703504 9.24998C1.00084 9.51973 1.35044 9.7255 1.73061 9.85452C2.11078 9.98353 2.5134 10.033 2.9135 9.99998C3.24835 9.99801 3.5826 9.97127 3.9135 9.91998C4.21967 9.86997 4.51856 9.78265 4.8035 9.65998C4.8115 9.364 4.78125 9.06822 4.7135 8.77998C4.66166 8.57932 4.58081 8.3873 4.4735 8.20998C4.24831 8.3095 4.01384 8.38654 3.7735 8.43998C3.58174 8.4715 3.38783 8.48821 3.1935 8.48998C2.84788 8.50319 2.51071 8.38123 2.2535 8.14998C2.12021 8.00758 2.01837 7.83871 1.95463 7.65436C1.89088 7.47001 1.86665 7.27431 1.8835 7.07998C1.88162 6.74232 1.92535 6.40594 2.0135 6.07998C2.08656 5.7694 2.21531 5.47464 2.3935 5.20998C2.56315 4.96525 2.78092 4.75769 3.0335 4.59998C3.32602 4.42499 3.66284 4.33818 4.0035 4.34998C4.21563 4.34627 4.42736 4.3698 4.6335 4.41998C4.8317 4.46302 5.02577 4.52325 5.2135 4.59998C5.36179 4.37224 5.47317 4.12249 5.5435 3.85998C5.61208 3.61913 5.64905 3.37038 5.6535 3.11998C5.3961 3.01852 5.12755 2.94803 4.8535 2.90998C4.5721 2.86732 4.2881 2.84394 4.0035 2.83998Z" fill="white"/>
<path d="M9.00349 8.31984C8.91647 8.35144 8.82571 8.37161 8.73349 8.37984H8.54349H8.30349C8.22623 8.3709 8.15325 8.33962 8.09349 8.28984C8.04864 8.23849 8.01766 8.17653 8.00349 8.10984C7.95884 8.00578 7.93832 7.89296 7.94349 7.77984C7.93624 7.65662 7.93624 7.53307 7.94349 7.40984L9.00349 2.08984C9.06349 1.80984 9.10349 1.54984 9.14349 1.30984C9.15979 1.09691 9.16313 0.883183 9.15349 0.669844C9.16 0.500345 9.1363 0.33104 9.08349 0.169844C8.80603 0.121186 8.52516 0.0944366 8.24349 0.0898438H7.73349L7.22349 0.169844C7.22349 0.249844 7.22349 0.319844 7.22349 0.389844V0.629844C7.22015 0.924076 7.20012 1.21788 7.16349 1.50984C7.16349 1.85984 7.06349 2.26984 6.96349 2.73984L6.11349 7.25984C6.11349 7.40984 6.06349 7.55984 6.04349 7.68984C6.03433 7.81968 6.03433 7.95001 6.04349 8.07984C6.02291 8.337 6.05878 8.59554 6.14861 8.83737C6.23843 9.07921 6.38003 9.29848 6.56349 9.47984C6.96513 9.7916 7.46583 9.94785 7.97349 9.91984C8.21118 9.92431 8.44878 9.90757 8.68349 9.86984C8.85736 9.84857 9.02838 9.80834 9.19349 9.74984C9.19794 9.68325 9.19794 9.61644 9.19349 9.54984C9.19875 9.48328 9.19875 9.41641 9.19349 9.34984C9.20829 9.17015 9.20829 8.98954 9.19349 8.80984C9.11349 8.62984 9.07349 8.46984 9.00349 8.31984Z" fill="white"/>
<path d="M10.5435 3.62C10.4939 3.82964 10.4704 4.0446 10.4735 4.26C10.468 4.28975 10.468 4.32025 10.4735 4.35V4.43H11.3135L10.3135 9.84C10.6077 9.88924 10.9052 9.91599 11.2035 9.92C11.5217 9.91695 11.8392 9.89021 12.1535 9.84L13.4135 3H10.7435C10.6558 3.19927 10.5887 3.40703 10.5435 3.62Z" fill="white"/>
<path d="M13.9236 0.09C13.7659 0.0487317 13.6055 0.0186568 13.4436 0L13.0036 0H12.5236C12.3556 0.0127813 12.1886 0.0361612 12.0236 0.07C11.9273 0.357837 11.8504 0.651836 11.7936 0.95C11.7428 1.24041 11.7227 1.53537 11.7336 1.83C11.8932 1.84689 12.0541 1.84689 12.2136 1.83H12.6736H13.1436C13.3099 1.84529 13.4773 1.84529 13.6436 1.83C13.7291 1.55822 13.7959 1.2809 13.8436 1C13.9027 0.7004 13.9296 0.395321 13.9236 0.09Z" fill="white"/>
<path d="M17.7235 2.84023C17.1325 2.83159 16.5486 2.96899 16.0235 3.24023C15.5493 3.49015 15.1282 3.82977 14.7835 4.24023C14.437 4.6681 14.1726 5.15629 14.0035 5.68023C13.8353 6.18677 13.7476 6.71653 13.7435 7.25023C13.7096 7.98407 13.9645 8.702 14.4535 9.25023C14.7503 9.51665 15.0988 9.71898 15.4774 9.84459C15.8559 9.97019 16.2563 10.0164 16.6535 9.98023C16.9883 9.97825 17.3226 9.95151 17.6535 9.90023C17.9632 9.85152 18.2655 9.76417 18.5535 9.64023C18.5615 9.34424 18.5312 9.04846 18.4635 8.76023C18.4073 8.56106 18.3267 8.36961 18.2235 8.19023C17.9949 8.29 17.7571 8.36704 17.5135 8.42023C17.3251 8.45174 17.1345 8.46846 16.9435 8.47023C16.5975 8.48559 16.2595 8.36335 16.0035 8.13023C15.8702 7.98782 15.7683 7.81895 15.7046 7.6346C15.6408 7.45026 15.6166 7.25456 15.6335 7.06023C15.6331 6.72328 15.6734 6.38752 15.7535 6.06023C15.831 5.75114 15.9594 5.45712 16.1335 5.19023C16.3067 4.94504 16.5278 4.73752 16.7835 4.58023C17.0567 4.42247 17.3681 4.3429 17.6835 4.35023C17.8923 4.34648 18.1007 4.37001 18.3035 4.42023C18.5428 4.45377 18.7776 4.51415 19.0035 4.60023C19.1518 4.37248 19.2631 4.12273 19.3335 3.86023C19.4002 3.61865 19.4405 3.37052 19.4535 3.12023C19.1923 3.0199 18.9205 2.94946 18.6435 2.91023C18.339 2.86382 18.0315 2.84042 17.7235 2.84023Z" fill="white"/>
<path d="M25.3434 2.91992H24.8334L24.3134 2.99992C24.2893 3.19581 24.2389 3.38755 24.1634 3.56992C24.0382 3.8809 23.8662 4.17091 23.6534 4.42992L22.2634 6.25992L23.5234 9.83992C23.6851 9.87041 23.849 9.88713 24.0134 9.88992H24.4834H24.9534L25.4634 9.83992L24.1834 6.26992L25.5134 4.59992C25.7281 4.31214 25.9252 4.01159 26.1034 3.69992C26.2348 3.48665 26.32 3.24818 26.3534 2.99992L25.8534 2.93992L25.3434 2.91992Z" fill="white"/>
<path d="M22.8834 0.669844C22.8899 0.500345 22.8662 0.33104 22.8134 0.169844C22.5459 0.122335 22.2751 0.0955889 22.0034 0.0898438H21.5034L21.0034 0.169844C21.0034 0.249844 21.0034 0.319844 21.0034 0.389844C21.0034 0.459844 21.0034 0.539844 21.0034 0.629844C20.9787 1.33837 20.8985 2.04387 20.7634 2.73984L19.5134 9.83984C19.8107 9.89128 20.1117 9.91804 20.4134 9.91984C20.7484 9.92006 21.0828 9.89331 21.4134 9.83984L22.7734 2.08984C22.8551 1.62108 22.8919 1.1456 22.8834 0.669844Z" fill="white"/>
<path d="M34.8234 3.00008V3.10008C34.8289 3.13654 34.8289 3.17362 34.8234 3.21008C34.8164 3.43532 34.7896 3.65951 34.7434 3.88008C34.6757 4.19311 34.5751 4.49812 34.4434 4.79008L33.1534 7.79008L32.7934 3.00008C32.4629 2.94609 32.1284 2.91934 31.7934 2.92008C31.4916 2.9192 31.1904 2.94598 30.8934 3.00008L29.0034 7.75008L28.7734 3.00008L28.3234 2.94008H27.8634C27.4991 2.93413 27.1349 2.95418 26.7734 3.00008L27.4834 9.84008C27.635 9.87192 27.7888 9.89198 27.9434 9.90008H28.4134H28.9634L29.4934 9.85008L31.3534 5.50008L31.7334 9.85008C32.0373 9.9024 32.3451 9.92916 32.6534 9.93008H33.2134C33.3946 9.92234 33.575 9.9023 33.7534 9.87008L36.2134 5.00008C36.4009 4.64737 36.5582 4.27938 36.6834 3.90008C36.7794 3.61645 36.83 3.31947 36.8334 3.02008V3.00008C36.5027 2.94713 36.1684 2.92038 35.8334 2.92008C35.4951 2.91759 35.1572 2.94436 34.8234 3.00008Z" fill="white"/>
<path d="M42.0936 3.27009C41.8959 3.13998 41.6753 3.04837 41.4436 3.00009C41.1767 2.92573 40.9007 2.88871 40.6236 2.89009C40.0652 2.87182 39.5104 2.98485 39.0036 3.22009C38.5226 3.4639 38.0971 3.80433 37.7536 4.22009C37.4265 4.63748 37.1729 5.10754 37.0036 5.61009C36.8171 6.11939 36.7223 6.65771 36.7236 7.20009C36.7192 7.59077 36.78 7.97945 36.9036 8.35009C37.0127 8.68667 37.2014 8.99197 37.4536 9.24009C37.7409 9.4991 38.0826 9.69045 38.4536 9.80009C38.8996 9.94175 39.3658 10.0093 39.8336 10.0001H40.4036L41.0336 9.90009C41.2425 9.86404 41.4495 9.81731 41.6536 9.76009C41.8313 9.70935 42.0051 9.64586 42.1736 9.57009C42.1772 9.30175 42.1537 9.03374 42.1036 8.77009C42.0609 8.53621 41.9613 8.31643 41.8136 8.13009C41.5366 8.2445 41.2527 8.34136 40.9636 8.42009C40.661 8.50443 40.3478 8.54484 40.0336 8.54009C39.6721 8.56112 39.3157 8.44708 39.0336 8.22009C38.7818 7.96978 38.632 7.63471 38.6136 7.28009L39.4936 7.13009C39.9113 7.07457 40.323 6.98084 40.7236 6.85009C41.0949 6.73233 41.4482 6.56409 41.7736 6.35009C42.0723 6.16165 42.3252 5.90882 42.5136 5.61009C42.7015 5.31079 42.7988 4.96347 42.7936 4.61009C42.801 4.35411 42.7461 4.10015 42.6336 3.87009C42.5064 3.62823 42.3208 3.42198 42.0936 3.27009ZM40.8436 5.11009C40.7819 5.22914 40.6969 5.33457 40.5936 5.42009C40.4376 5.53428 40.2658 5.62522 40.0836 5.69009C39.8203 5.79459 39.5447 5.86515 39.2636 5.90009L38.5736 6.00009C38.6297 5.77212 38.7102 5.55084 38.8136 5.34009C38.9051 5.13351 39.0264 4.94147 39.1736 4.77009C39.3114 4.6016 39.4814 4.46223 39.6736 4.36009C39.8645 4.25898 40.0776 4.2074 40.2936 4.21009C40.3755 4.20512 40.4576 4.21673 40.5349 4.24422C40.6122 4.27172 40.6832 4.31453 40.7436 4.37009C40.7981 4.42298 40.8406 4.48696 40.8682 4.5577C40.8958 4.62844 40.9079 4.70428 40.9036 4.78009C40.9023 4.89269 40.882 5.00426 40.8436 5.11009Z" fill="white"/>
<path d="M49.4534 3.47992C49.2819 3.26349 49.0602 3.09211 48.8076 2.9806C48.5549 2.86909 48.2789 2.8208 48.0034 2.83992C47.7432 2.83407 47.4835 2.86778 47.2334 2.93992C47.0281 2.99201 46.8323 3.0764 46.6534 3.18992C46.4923 3.2872 46.3444 3.40483 46.2134 3.53992C46.0886 3.66233 45.9716 3.79259 45.8634 3.92992L46.1934 2.08992C46.297 1.62285 46.3606 1.1478 46.3834 0.669922C46.3848 0.500719 46.3612 0.332238 46.3134 0.169922C45.7775 0.572221 45.1475 0.830439 44.4834 0.919922C44.4423 1.53055 44.3655 2.13826 44.2534 2.73992L43.0034 9.59992C43.3259 9.73065 43.661 9.82783 44.0034 9.88992C44.3754 9.96464 44.754 10.0015 45.1334 9.99992C45.9179 10.0237 46.6984 9.88055 47.4234 9.57992C47.9947 9.32696 48.5034 8.95142 48.9134 8.47992C49.2783 8.04638 49.5506 7.5427 49.7134 6.99992C49.8905 6.45681 49.9882 5.89097 50.0034 5.31992C50.0312 4.66231 49.8375 4.0144 49.4534 3.47992ZM47.8034 6.55992C47.7198 6.88588 47.5847 7.19643 47.4034 7.47992C47.2262 7.75722 46.9907 7.99266 46.7134 8.16992C46.4145 8.35762 46.0662 8.45165 45.7134 8.43992H45.3734C45.2809 8.43395 45.1898 8.41371 45.1034 8.37992L45.3934 6.68992C45.4489 6.0837 45.6589 5.50183 46.0034 4.99992C46.1223 4.84582 46.2734 4.71947 46.4461 4.62967C46.6188 4.53987 46.809 4.48877 47.0034 4.47992C47.1328 4.46975 47.2624 4.49625 47.3773 4.55639C47.4923 4.61653 47.588 4.70787 47.6534 4.81992C47.7862 5.06515 47.8518 5.34116 47.8434 5.61992C47.8656 5.93376 47.8522 6.2491 47.8034 6.55992Z" fill="white"/>
</svg>
