<svg width="61" height="136" viewBox="0 0 31 126" fill="none" xmlns="http://www.w3.org/2000/svg">
  <!-- Circulos -->
  <circle cx="10.5" cy="10.6799" r="10" fill="#F0EAD8"/>
  <circle cx="10.5" cy="10.6799" r="5" fill="white"/>
  <!-- Path -->
  <path d="M12.5 20.6799C12.5 19.5753 11.6046 18.6799 10.5 18.6799C9.39543 18.6799 8.5 19.5753 8.5 20.6799H12.5ZM8.5 20.6799C8.5 22.4043 8.65553 24.1078 8.93988 25.7934L12.8841 25.128C12.6337 23.643 12.5 22.1627 12.5 20.6799H8.5ZM11.8471 35.4098C13.0808 38.3525 14.5767 41.2828 16.188 44.2154L19.6937 42.2892C18.1163 39.4183 16.6937 36.6245 15.5359 33.8632L11.8471 35.4098ZM20.9775 52.6012C22.5563 55.3336 24.1319 58.0966 25.6192 60.9296L29.1608 59.0702C27.6337 56.1615 26.0241 53.3399 24.4409 50.6L20.9775 52.6012ZM29.6332 69.4465C30.8055 72.3116 31.807 75.2511 32.559 78.2875L36.4417 77.326C35.6354 74.0701 34.568 70.9446 33.3353 67.9317L29.6332 69.4465ZM33.9703 87.4041C34.1477 90.3624 34.055 93.4276 33.6278 96.6167L37.5924 97.1477C38.0546 93.697 38.1556 90.3737 37.9631 87.1646L33.9703 87.4041ZM31.5827 105.643C30.7001 108.423 29.5574 111.3 28.1173 114.284L31.7198 116.023C33.2375 112.878 34.4519 109.824 35.3951 106.854L31.5827 105.643ZM23.5754 122.453C21.9909 124.977 20.1981 127.574 18.1784 130.245L21.3693 132.657C23.4538 129.9 25.3132 127.208 26.9634 124.579L23.5754 122.453ZM12.2383 137.556C11.2117 138.738 10.1421 139.935 9.02814 141.146L11.9719 143.854C13.1112 142.616 14.2065 141.39 15.2592 140.177L12.2383 137.556Z" fill="#F0EAD8"/>
</svg>
