<svg width="71" height="72" viewBox="0 0 71 72" fill="none" xmlns="http://www.w3.org/2000/svg">
<g clip-path="url(#clip0_2_549)">
<path d="M58.79 16.24C54.5942 12.0449 49.2487 9.18821 43.4295 8.03107C37.6102 6.87393 31.5784 7.46832 26.0969 9.7391C20.6154 12.0099 15.9304 15.8551 12.6342 20.7884C9.33795 25.7218 7.57861 31.5218 7.57861 37.455C7.57861 43.3882 9.33795 49.1882 12.6342 54.1216C15.9304 59.0549 20.6154 62.9001 26.0969 65.1709C31.5784 67.4417 37.6102 68.0361 43.4295 66.8789C49.2487 65.7218 54.5942 62.8651 58.79 58.67C61.5763 55.8842 63.7866 52.5768 65.2945 48.9367C66.8025 45.2966 67.5786 41.3951 67.5786 37.455C67.5786 33.5149 66.8025 29.6134 65.2945 25.9733C63.7866 22.3332 61.5763 19.0258 58.79 16.24ZM51.72 51.6C48.9226 54.3962 45.359 56.3002 41.4796 57.0713C37.6002 57.8423 33.5793 57.4458 29.9252 55.9318C26.2712 54.4178 23.1481 51.8544 20.9508 48.5656C18.7535 45.2768 17.5808 41.4103 17.5808 37.455C17.5808 33.4997 18.7535 29.6332 20.9508 26.3444C23.1481 23.0556 26.2712 20.4922 29.9252 18.9782C33.5793 17.4642 37.6002 17.0677 41.4796 17.8387C45.359 18.6097 48.9226 20.5138 51.72 23.31C53.578 25.1673 55.052 27.3724 56.0576 29.7995C57.0632 32.2265 57.5807 34.8279 57.5807 37.455C57.5807 40.0821 57.0632 42.6835 56.0576 45.1105C55.052 47.5376 53.578 49.7427 51.72 51.6Z" fill="#F6C63B"/>
<path d="M70.4699 68.93L54.5399 53C60.1745 47.002 63.2399 39.0383 63.081 30.8103C62.9222 22.5824 59.5517 14.7429 53.6898 8.96687C47.8279 3.19086 39.9395 -0.0635428 31.7101 -0.100947C23.4808 -0.13835 15.5631 3.04421 9.64895 8.7667C3.7348 14.4892 0.293222 22.2978 0.0595932 30.5239C-0.174035 38.75 2.81882 46.7413 8.39865 52.7903C13.9785 58.8392 21.7028 62.466 29.921 62.8957C38.1392 63.3254 46.1996 60.524 52.3799 55.09L68.3799 71.09C68.5191 71.2299 68.6845 71.3409 68.8666 71.4169C69.0487 71.4928 69.244 71.5321 69.4414 71.5326C69.6387 71.5331 69.8342 71.4947 70.0167 71.4196C70.1991 71.3445 70.365 71.2342 70.5049 71.095C70.6448 70.9558 70.7558 70.7904 70.8318 70.6083C70.9077 70.4262 70.947 70.2309 70.9475 70.0335C70.948 69.8362 70.9096 69.6407 70.8345 69.4582C70.7594 69.2758 70.6491 69.1099 70.5099 68.97L70.4699 68.93ZM11.5099 51.65C6.84023 46.9818 3.93501 40.8379 3.2899 34.2666C2.6448 27.6953 4.29978 21.1038 7.97249 15.6166C11.6452 10.1294 17.1081 6.08652 23.4291 4.1778C29.75 2.26907 36.5375 2.61274 42.6334 5.15015C48.7292 7.68756 53.7558 12.2615 56.8555 18.0916C59.9552 23.9217 60.936 30.6467 59.6304 37.1192C58.3249 43.5918 54.8139 49.4108 49.6966 53.5835C44.5793 57.7562 38.1727 60.024 31.5699 60C24.0141 59.9969 16.7678 56.9977 11.4199 51.66" fill="#546E4D"/>
</g>
<defs>
<clipPath id="clip0_2_549">
<rect width="70.82" height="71.49" fill="white" transform="translate(0.0898438)"/>
</clipPath>
</defs>
</svg>
